<svg xmlns="http://www.w3.org/2000/svg" viewBox="0 0 165.8 133.12"><defs><style>.cls-1{fill:#3b3b3b;}</style></defs><g id="Capa_2" data-name="Capa 2"><g id="Capa_1-2" data-name="Capa 1"><path class="cls-1" d="M75,131.15c.06-.3-.65-.46-1.94-1.52-1.45-1.2-1.53-2-2.91-3.08-.91-.73-2-1.27-2.9-2-1.69-1.29-3.38-2.54-5.12-3.75-6.07-4.21-11.42-9.78-14-16.83a25.14,25.14,0,0,1-1.5-4,39.1,39.1,0,0,1-.46-6.74,17,17,0,0,1,.22-4.1,16,16,0,0,1,2.65-5.23,26.66,26.66,0,0,1,5.52-6.08,16.11,16.11,0,0,1,8-3,10.11,10.11,0,0,1,7.08,1.34c2.84,1.64,4.87,4.22,6.56,6.24C81,88.18,87,94.59,87.28,96.51c0,.15.12.88.53,1s.63-.15.75-.24c1.31-1,2.1-7.44,3.49-11.23a18.39,18.39,0,0,1,3.25-5.5c4.61-5.59,13.06-8.91,20.41-7a12.79,12.79,0,0,1,6.14,3.21,14,14,0,0,1,3.69,7.9,45,45,0,0,1-5.64,30.22c-2.31,3.86-3.66,8.68-6.74,12-.58.63-3,3.24-2.63,3.92.56.92,4.84.34,5.65.34h10.64a12.79,12.79,0,0,0,8.76-3.86,11.06,11.06,0,0,0,2.55-3.46c.33-.82.5-1.69.81-2.52s.83-1.68,1.09-2.64a21.35,21.35,0,0,1,1.17-3.46,22.42,22.42,0,0,0,1-3.95c.33-1.32.81-2.6,1.15-3.91s.3-2.77.64-4.08c.2-.74.72-1.36.92-2.12.46-1.86.54-3.84,1-5.72.56-2.1,1.52-4.25,2.26-6.31.44-1.24.45-3.38,1.55-4.11a13.08,13.08,0,0,1,5.07-2.29c7.44-1.8,8.52-1.52,9.21-2.64,1.35-2.17-1.39-6.09-2.8-8-7.86-10.92-18.94-24.22-25.91-35-2.07-3.21-4.11-7.81-9.72-15.19-3.19-4.2-5-5.69-7.59-10.36a16.64,16.64,0,0,0-5.24-5.88A18,18,0,0,0,107,3.17c-3.77-.93-6.47-.49-9.8-.49-4.8,0-9.58-.22-14.36-.36-4.38-.13-8.69-.84-13.09-.81-1.7,0-3.41-.05-5.11,0a22,22,0,0,0-5.33,1,23.36,23.36,0,0,0-3.07,1.34c-1.24.51-2.12.91-2.16.93C50.38,6.29,31.63,36.65,22,49.51c-5,6.59-9.8,13.28-14.44,20.1-2,2.94-4.14,6-5.35,9.34-.72,2-1.38,3.7.78,4.93,3.93,2.24,9,1,13.26,2.1a26.88,26.88,0,0,0,4.36.76c.79.07,1.6-.06,2.38.05,2.26.3,3.15,2,4,3.87,1.4,3.17,1.39,6.64,1.86,10,.42,3,.39,5.91.78,8.87s.45,6,.86,8.95a30.27,30.27,0,0,0,1.21,6.44c.57,1.53,1.37,3.51,2.85,4.29,2.27,1.2,5,1.17,7.51,1.15a44.6,44.6,0,0,1,6.84.08c4.09.63,4.13.74,8.37,1.11,3.6.32,3.23-.1,10.63,0C72,131.59,74.9,131.75,75,131.15Z"/><path class="cls-1" d="M76.51,131.15c-.07-1.11-.86-1.52-1.68-2.08a20.25,20.25,0,0,1-3-3.06,31.83,31.83,0,0,0-3.8-2.74c-1.45-1.06-2.86-2.15-4.32-3.18-5-3.5-9.46-7.52-12.44-12.88a34.73,34.73,0,0,1-1.82-4,18.38,18.38,0,0,1-1.54-5,48.59,48.59,0,0,1-.21-5,12.91,12.91,0,0,1,.54-4.91,24.35,24.35,0,0,1,5.57-7.84,14.19,14.19,0,0,1,7.56-3.9,10.44,10.44,0,0,1,8.58,1.58c2.29,1.6,4,3.89,5.78,6,2.07,2.47,4.2,4.89,6.27,7.36,1.28,1.53,3,3.21,3.75,5.08a5,5,0,0,0,.83,1.86,2.27,2.27,0,0,0,3.24-.32c1.32-1.42,1.64-3.91,2.07-5.71.65-2.7,1.17-5.51,2.52-8a19,19,0,0,1,4.52-5.41c4.21-3.49,10.23-5.39,15.66-4.27a11.64,11.64,0,0,1,6.76,3.58c2,2.35,2.66,5.45,3,8.45a45.21,45.21,0,0,1-2,19.29,59.58,59.58,0,0,1-4.28,9c-1.39,2.57-2.42,5.32-3.89,7.86-1.2,2.07-2.92,3.63-4.29,5.57-1.16,1.64-1.14,3.63,1.13,4.15,1.78.41,3.64,0,5.44,0,3.58-.06,7.18.15,10.76,0a14.23,14.23,0,0,0,7.94-2.94,17.22,17.22,0,0,0,2.85-2.81,11.84,11.84,0,0,0,2.14-4.34c1-3.12,2.58-6.11,3.21-9.33.31-1.58.78-3.07,1.23-4.6.51-1.71.36-3.66,1-5.3.24-.6.59-1.14.78-1.77a18.14,18.14,0,0,0,.48-2.63,26.57,26.57,0,0,1,1.15-5c.52-1.48,1.18-2.92,1.66-4.41.32-1,.27-2.51,1-3.29a7.58,7.58,0,0,1,2.63-1.47,31.48,31.48,0,0,1,4.58-1.2c1.77-.4,3.65-.63,5.39-1.19,4.24-1.36,2.39-6.35.67-9.1-3.14-5-7-9.64-10.64-14.33-6.83-8.89-13.78-17.71-19.41-27.44a106.08,106.08,0,0,0-9.9-14.17,46.85,46.85,0,0,1-4.63-6.63,19,19,0,0,0-4.11-5.15c-4.1-3.49-9.56-4.6-14.83-4.45A193.85,193.85,0,0,1,78.94.58C75.4.3,71.89,0,68.34,0s-7,0-10.26,1.26c-1.31.51-2.57,1.18-3.87,1.74a8.44,8.44,0,0,0-1.25.6,10.64,10.64,0,0,0-2.11,2c-5.09,5.85-9.27,12.6-13.59,19-5.08,7.54-10,15.17-15.41,22.51C18,52.45,14,57.69,10.22,63.06c-2,2.86-4,5.73-5.93,8.65A29.37,29.37,0,0,0,.23,80c-1.84,6.86,8,6.75,12.27,7,3.21.17,6.26,1.18,9.49,1.25a3,3,0,0,1,2.91,1.66A14.1,14.1,0,0,1,26.42,94a72.2,72.2,0,0,1,1.24,10.58c.24,3.53.64,7,.93,10.59.26,3.19.45,6.7,1.47,9.76.87,2.61,2.1,5,4.81,6.06,3.09,1.2,6.62.87,9.86.78a47.56,47.56,0,0,1,8.08.78,60,60,0,0,0,10.28.48c2.85-.07,5.7,0,8.55,0,1.62,0,4.11.31,4.82-1.55s-2.21-2.58-2.89-.8c.34-.9,1-.78.16-.7-.46,0-.94,0-1.4,0-1.5,0-3,0-4.49-.06-2.22,0-4.44,0-6.65.09a51.08,51.08,0,0,1-10.32-.87,59.52,59.52,0,0,0-9.72-.38,16.44,16.44,0,0,1-4.69-.47,4.23,4.23,0,0,1-2.86-2.62c-1.27-2.7-1.53-5.78-1.84-8.71-.37-3.48-.72-7-1-10.5s-.58-6.89-1-10.33a18.67,18.67,0,0,0-2.64-8.39,5.78,5.78,0,0,0-2.79-2.26c-1.5-.55-3.12-.25-4.68-.45s-3.05-.68-4.6-.9a40.51,40.51,0,0,0-4.4-.33,25,25,0,0,1-4.4-.4c-.92-.2-3-.61-3.3-1.66-.25-.89.61-2.53.93-3.31a28.2,28.2,0,0,1,2.27-4.23c3.65-5.86,7.79-11.46,11.87-17,5.68-7.78,11.32-15.54,16.7-23.54,4.92-7.31,9.73-14.71,15-21.81A38.15,38.15,0,0,1,54.37,6.3c.36-.34-.11,0,.16-.14L54.81,6c1-.45,2-.83,2.94-1.29A20.73,20.73,0,0,1,67.41,3c7.13.09,14.22.78,21.35,1,3.47.12,7,.24,10.43.13a25.52,25.52,0,0,1,9.08,1,14.19,14.19,0,0,1,5.39,3.1,22.67,22.67,0,0,1,3.73,5.18A51.62,51.62,0,0,0,122,19.73c2,2.43,3.89,4.94,5.65,7.56,2.35,3.5,4.26,7.26,6.55,10.79,3.28,5.07,6.91,9.92,10.56,14.72,3.84,5.06,7.75,10.06,11.56,15.14,1.62,2.15,3.3,4.29,4.76,6.56a12.14,12.14,0,0,1,1.63,3.26,2.72,2.72,0,0,1,.14,1.2,1.46,1.46,0,0,1-.19.44c-.12.24.22-.25,0-.06s.24,0-.18.1c.4-.13-.13,0-.26.07-.64.18-1.28.31-1.92.44a53.59,53.59,0,0,0-7.93,1.92c-2.08.78-4.3,1.91-5,4.14-.38,1.18-.53,2.38-1,3.54-.58,1.54-1.23,3.06-1.71,4.64A35.69,35.69,0,0,0,143.8,99a9.6,9.6,0,0,1-.47,2.11,13.36,13.36,0,0,0-.88,2.19c-.37,1.67-.42,3.3-.92,4.94s-.87,3.2-1.23,4.83-1.14,3.14-1.6,4.74-1.15,2.87-1.6,4.35a11,11,0,0,1-5.59,6.28c-2.86,1.47-5.92,1.2-9,1.2-2.67,0-5.33-.06-8,.12a18.86,18.86,0,0,1-2.71,0l-.19-.05c-.22-.08-.24-.07,0,0,0,0,1.29.84.41,1.09.18,0,.61-1,.77-1.18a44,44,0,0,0,4.22-5.56c1.43-2.54,2.45-5.29,3.88-7.85a58.27,58.27,0,0,0,4.1-8.54A46.47,46.47,0,0,0,127.51,89c-.37-6-1.74-12.4-7.5-15.49-4.55-2.45-10.19-2.54-15-1a23.14,23.14,0,0,0-12.22,9,22.49,22.49,0,0,0-3.09,7.43c-.56,2.21-.84,4.74-1.81,6.82,0,.08-.21.29-.21.37,0,.59-.14-.09,0,0a3.9,3.9,0,0,0,1.16.3c0-.06-.08-.34-.08-.41a4.83,4.83,0,0,0-1-2,62.62,62.62,0,0,0-4.61-5.82c-2-2.35-4-4.68-6-7a27.73,27.73,0,0,0-6-5.79c-4.83-3.18-11.46-2.49-16.26.48a23.65,23.65,0,0,0-6.39,6.34c-1.84,2.49-3.52,5.15-3.76,8.31a37.27,37.27,0,0,0,.5,9.89,26.86,26.86,0,0,0,1.63,4.38,33.94,33.94,0,0,0,1.83,4,40.26,40.26,0,0,0,11.74,12.7c2.62,1.9,5.22,3.87,7.92,5.65a14.51,14.51,0,0,1,2.81,2.78,10.48,10.48,0,0,0,1.54,1.36,6.68,6.68,0,0,0,.89.61c.78.4,0,.45-.06-.68C73.64,133.07,76.64,133.08,76.51,131.15Z"/></g></g></svg>