<svg xmlns="http://www.w3.org/2000/svg" viewBox="0 0 650.21 684.26"><defs><style>.a{fill:#3b3b3b;}.b{fill:#fff;}</style></defs><path class="a" d="M1777.11,795.32c2.26-1.13,4-2.07,5.82-2.89,4.35-2,8.17-1,11.56,2.19s5.06,7.4,6.09,11.82c.47,2,1.36,2.75,3.46,2.83,9.11.34,15.68,4.73,18.79,13.3a99.28,99.28,0,0,1,4.2,16.5,23.85,23.85,0,0,1-2.17,14.32,44.13,44.13,0,0,1-15,18.29c-8.2,5.61-13.93,5.11-21.17-1.7-.35-.33-.77-.59-1.4-1.07a22.86,22.86,0,0,1-2,2.67c-2.31,2.31-4.4,5-7.11,6.73-10.8,6.72-23.05,2.53-27.72-9.49-4-10.37-3.59-21-.3-31.46.84-2.69.61-4.26-1.34-6.53-7.22-8.43-8.73-19.21,2.22-26.52.82-.54,1.6-1.13,2.75-2L1743,793.21c-2.3,12.62-4.23,25.19-7,37.59-4.06,18.56-14.18,33.73-27.88,46.59a123.21,123.21,0,0,1-11.9,9.56c-3.28,2.38-5.56,5.38-5.88,9.33-1.22,14.62-11,22.76-22.38,29.45a90.43,90.43,0,0,1-29.31,10.94c-4.45.83-4.51,1.12-4.57,5.77a32.54,32.54,0,0,0,.14,4.19c.29,2.4,1.07,4,4,4.62,7.8,1.68,12.8,10.36,10.68,18.06-4.4,16-14.25,27.63-28.72,35.58-19.17,10.53-39.81,14.16-61.37,12.86a61.14,61.14,0,0,1-28.73-9.6,40,40,0,0,1-9.63-9.2,12.25,12.25,0,0,1,2.53-17.3c1.81-1.33,1.85-2.29,1-4.15a14.13,14.13,0,0,0-6-6.45,59.53,59.53,0,0,1-26.1-30.26c-.65-1.68-1.44-2.3-3.35-1.84-13.51,3.21-26.9,2.45-40.3-.93a22.47,22.47,0,0,0-9.76-.15c-14.58,3-28.86,1.25-43-2.45-5.17-1.35-9.9-4.41-15.07-5.76-10.52-2.72-21.18-4.95-31.84-7.12-11-2.23-20.47-7.29-29-14.18a10.69,10.69,0,0,1-3.77-5.88c-1-6-4.61-9-10.08-10.49-7.69-2.11-15.34-4.37-23-6.47-5.07-1.38-8.2-5.09-8.45-10.32q-.07-1.8-.06-3.6c0-5.7-.37-11.13-3.93-16.15-1.66-2.35-2.16-5.81-2.44-8.84-2.11-22.72-2.09-45.51-1-68.26.74-15.65,2.87-31.22,4.1-46.85.81-10.45.19-21.09,1.85-31.37,4.17-25.84,8.73-51.69,18.12-76.26,5.59-14.64,12.21-28.89,18.25-43.36,10.26-24.57,26.35-44.83,46.31-62.11,3.3-2.86,7.74-4.41,11.67-6.53,3.14-1.69,6.76-2.81,9.39-5.09,12.18-10.54,26.52-17.39,40.82-24.27,10.79-5.18,21.86-9.8,32.74-14.8,20.76-9.55,42.86-13.91,65.25-17.29,16.77-2.53,33.61-4.23,50.38-.73a280.85,280.85,0,0,1,45.15,13.05c11.42,4.47,21.87,10.65,32.35,16.86a95.55,95.55,0,0,0,10,5.47c9.85,4.35,16.36,11.72,20.81,21.36,3.47,7.5,6.56,15.45,11.46,21.95,7.92,10.48,16.68,20.47,28,27.6,10,6.26,16.26,15.34,20.81,26,10.27,24,14.36,49.34,17.43,75,2.9,24.18,5.74,48.4,10.94,72.26,3,13.76,5.45,27.63,8.29,41.43,1.39,6.74,3.1,13.42,4.7,20.12C1776.08,792.23,1776.59,793.62,1777.11,795.32Zm-448.6-69.46c-1.18,20.07,3.81,38.59,13.58,55.82,6.17,10.9,13.25,21.05,24.3,28,9.26,5.82,19.14,8.79,29.87,7.73,18.32-1.8,34.09-9.65,47.48-22.15a119.37,119.37,0,0,0,33.12-52.67c.55-1.75,1.21-3.6,3.49-3.5s2.94,2,3.5,3.9a81.27,81.27,0,0,0,2.9,9.12,109.91,109.91,0,0,0,18.83,29.69c12.05,13.73,25.44,25.42,42.71,32,9.91,3.76,20,7.5,30.73,7.44,16.31-.1,30.87-6.09,43.37-16.38,14.45-11.9,24.49-27.24,32.12-44.21,6-13.43,9-27.7,11.16-42.16,4-26.77,1-52.29-12.66-76.23a114.57,114.57,0,0,0-22.18-28.1c-4.88-4.45-10.53-8.61-16.58-11.09-22.26-9.14-43.44-4.59-62.58,8.35-11.48,7.77-22.23,16.87-29.79,29.12-7.18,11.63-15.77,22.39-21,35.2a29.48,29.48,0,0,1-3.11,5.45c-1.89,2.75-4.69,3.35-7.22,1.23a13.52,13.52,0,0,1-3.32-4.79c-.89-2-1.12-4.26-1.92-6.29-4.74-12-9.17-24.08-14.47-35.8-6.13-13.58-15.54-24.48-28.77-31.92a58,58,0,0,0-35.68-7.54,54.94,54.94,0,0,0-35.11,17.5,125.51,125.51,0,0,0-21.76,30.68C1336.88,670.06,1329.18,697.09,1328.51,725.86ZM1636,956.94c-.47.88-.86,1.56-1.2,2.25-2,4-3.46,8.42-6.06,12-8.33,11.45-19.77,18.76-33.14,23a38.77,38.77,0,0,1-9.14,1.38c-2.51.16-5.8-.15-6.1-3-.26-2.53,2.89-3.12,5.13-3.59,9.26-1.92,17.52-6,25.32-11.22,8.42-5.62,13.37-13.78,17-22.94a6.87,6.87,0,0,0,.23-3.52c-1.67-9.33-.32-18.33,3-27.06a33.59,33.59,0,0,0,.7-21.79c-1.68-5.82-4.76-11.08-10.69-13.78-4.17-1.9-6-5.1-5.82-9.54a52.24,52.24,0,0,1,5.12-20.79c3.2-6.66,6.7-13.19,9.55-20,2.4-5.76,5-11.62,4.58-18.12-.2-3.36-1.16-4-4.51-4.24-7.17-.49-13.19,2.24-18.26,6.92-9.44,8.75-18.63,17.79-28,26.66-4.12,3.91-8.17,7.93-12.56,11.52-3.33,2.73-5.73,2.47-9.24,0-1.72-1.19-3.41-2.44-5.1-3.67-4.72-3.44-9.81-4.31-15.26-2.05-16.47,6.85-27.15,19.22-33.63,35.53a16.38,16.38,0,0,0-.1,12.85c1.92,4.56,4.41,6.17,9.35,5.62a60,60,0,0,0,9.72-1.77,11.39,11.39,0,0,1,9.44,1.47c1.48.89,3.48,1.89,2.3,3.77-.64,1-2.83,1.31-4.37,1.48-2.41.26-4.89,0-7.31.25s-4.68,1-7,1.38c-10.53,1.68-17.08-3-19.38-13.38-1.71-7.73,1.15-14.38,4.59-20.87,1.29-2.44.92-3.7-1.64-4.36-6.64-1.72-13-4.51-20.09-4.46-5.18,0-8.61,2-9.5,7a20,20,0,0,0,.21,8.82,88.47,88.47,0,0,0,5.43,12.93c1.69,3.51,3.94,6.73,5.61,10.24,3.81,8,7.72,16,11,24.29a59.37,59.37,0,0,0,14.12,20.93c3.27,3.17,6.72,6.74,10.79,8.36a20.11,20.11,0,0,1,10.4,8.8c5.39,8.83,12.4,15.84,22.68,18.93a34.66,34.66,0,0,1,6.06,2.57,29.16,29.16,0,0,1,3.68,2.71c-2.51,3.06-5.36,2.47-8.12,2.21-9.64-.88-17.39-5.43-24-12.28a14.59,14.59,0,0,0-3.35-2c-.86,1.51-2.12,2.95-2.43,4.57a5.66,5.66,0,0,0,1.12,4.15c2,2.35,4,4.85,6.57,6.4,8.66,5.24,18.15,8.57,28.3,8.86,18.63.53,36.61-2.52,53.39-11.17,12.45-6.41,21.61-15.55,25.76-29.27C1642.93,964,1641.81,960.54,1636,956.94Zm119.54-104.53c.88,4.68,1.29,8.58,2.39,12.27,1.28,4.3,4,7.84,8.69,8.62s8.49-1.56,11.51-5.09a15.93,15.93,0,0,0,1.74-2.44c1.32-2.35,2.47-4.8,3.89-7.08,2.14-3.45,6-3.21,7.77.42.8,1.61,1.33,3.36,2.27,4.87,2.27,3.63,5.1,4.6,8.62,3.2,9.88-3.91,18.14-17.85,16.38-28.2a68.48,68.48,0,0,0-3.43-12.38c-2.63-7-7.81-9.68-15.22-8.33-4.76.87-6.24-.38-7.19-5.07a56.34,56.34,0,0,0-3.2-10.22,4.52,4.52,0,0,0-3.34-2.39c-5.16,0-7.38,4-5.78,8.94a70.69,70.69,0,0,1,2.53,12.47,4.91,4.91,0,0,1-3.09,5.33c-2.22,1-3.75-.3-5.37-1.59-4.53-3.62-7.58-8.4-10.72-13.16-3.44-5.2-3.91-5.18-8.54-1.25-5.3,4.49-5.1,11.17.46,15.43,4.3,3.28,4.52,4.71,3.07,10S1756.57,847.62,1755.54,852.41Zm-369.24,2c-1.44-.7-2.74-1-3.62-1.8-3.35-3-6.49-6.18-9.85-9.13-.91-.8-2.32-1-3.49-1.54-.22,1.34-.8,2.74-.55,4a35.58,35.58,0,0,0,2,5.66l-.79.43c-.92-1.12-2-2.16-2.75-3.36-2.5-3.73-4.82-7.58-7.41-11.26a28,28,0,0,0-3.76-3.7l-.87.6c.08,1-.19,2.28.29,3.06,3.54,5.76,7.14,11.5,10.94,17.1,1.38,2,3.72,3.58,6.19,2.66,1.46-.55,2.36-2.61,3.59-4.08.89.68,2.1,1.7,3.42,2.57a22.43,22.43,0,0,0,4.16,2.33c4,1.52,6.45,0,6.85-4.25.1-.94.17-1.88.26-3,2.12.94,3.87,1.89,5.74,2.51,3.67,1.2,5.64-.64,4.92-4.46-.23-1.2-.56-2.38-.83-3.55l5.52,1.27.27-.84a6.19,6.19,0,0,0-.88-1.08c-3.38-2.63-6.73-5.31-10.23-7.78-.85-.6-2.23-.46-3.37-.67a14.14,14.14,0,0,0,.8,3.32c1.53,3,3.25,5.91,4.89,8.85l-1.3,1.07c-2.81-2.27-5.56-4.62-8.46-6.77-1-.72-2.6-1.65-3.41-1.29-1.87.83-.88,2.42-.2,3.81C1385.77,847.82,1387.11,850.6,1386.3,854.37Zm311-183.7.49.2c-.47,1.17-1,2.33-1.39,3.51-1.35,3.75-2.82,7.46-3.9,11.29-.3,1.08.24,3.1,1.06,3.6s2.77.06,3.72-.65a30.16,30.16,0,0,0,9.76-12.27,6,6,0,0,0,.16-1.86l-.67-.42-9.27,11-.83-.64c.13-.45.25-.91.41-1.35,1.73-4.88,3.6-9.72,5.11-14.66a4,4,0,0,0-1.07-3.59c-.81-.5-2.58.09-3.71.65a17.31,17.31,0,0,0-3.16,2.63,65.17,65.17,0,0,1,1.42-7.6c.16-.81-.52-1.77-.81-2.67-.65.6-1.56,1.08-1.9,1.82-1.38,3-2.59,6.18-4.08,9.81l-2-3.6-.87.16c.36,4,.55,8.07,1.19,12,.2,1.25,1.48,2.5,2.58,3.36.49.38,1.74-.22,2.65-.37l-.87-2.41c-.28-.77-1-2-.76-2.24C1692.75,674.42,1695.06,672.57,1697.32,670.67ZM1537.66,835a8.22,8.22,0,0,0-7.82,6.31c-.54,2-1.06,4.31,1.18,5.67s4-.09,5.5-1.64,2.76-3,4.14-4.53l.25,1a56.79,56.79,0,0,0,7.12.42c1.08-.06,2.57-1.35.92-2.46a37.55,37.55,0,0,0-7.57-3.74c-.78-.3-2.06.43-3,.92a16.27,16.27,0,0,0-2.41,1.94C1536.56,837.56,1537.07,836.39,1537.66,835Zm28.56-314c.46-3.4,1-5.94,1.09-8.5a3.49,3.49,0,0,0-3.61-3.93c-2.08-.08-3.78,1.76-4,4.18l3.8-.32c-.14,1.35-.18,2.41-.37,3.44-.33,1.87-.88,3.7-1.09,5.58s.65,3.73,2.8,3.15a27.26,27.26,0,0,0,6.93-3.32c.67-.41.72-1.83,1.06-2.79l-.73-.37Zm-199.61,63.72,15.91-7.35.9,3.26.87,0c.08-1.12.59-2.48.13-3.29a3.63,3.63,0,0,0-2.89-1.54,20.46,20.46,0,0,0-6.91,1.71C1371.64,579.05,1368.22,580.32,1366.61,584.73Zm183.84-63.29-.79,1.2c2.55,2.23,5,4.54,7.68,6.65.49.39,1.59,0,2.41,0a7.86,7.86,0,0,0-1-2.47,14.28,14.28,0,0,0-3.3-3A48.55,48.55,0,0,0,1550.45,521.44ZM1365,574.59a6.79,6.79,0,0,0,7.07-2.47c.48-.59.25-1.75.34-2.64-.93,0-2.17-.32-2.72.15A65.53,65.53,0,0,0,1365,574.59Z" transform="translate(-1177.15 -333.74)"/><path class="a" d="M1752.34,491.83c-1.59,2.32-3.38,5-5.27,7.69-.86,1.2-1.71,2.75-2.93,3.23s-3.52.25-4.09-.56A119.82,119.82,0,0,0,1723.46,483c-3.54-3.25-4-7-1.87-11.41,1.28-2.65,1.83-5.68,2.56-8.57,1-3.81,3.1-4.51,6.34-2.22a16.51,16.51,0,0,0,5.25,2.51,3,3,0,0,0,4-2.24c.49-2,.2-4-1.88-4.86-3.87-1.53-7.85-2.8-11.83-4a27,27,0,0,0-4.16-.46c-5.12-.71-6.76-2.54-5.86-7.65,2.16-12.3,4.25-24.62,7-36.77a138.85,138.85,0,0,1,7.55-23.9c3.9-9.06,16.81-13.67,26.24-10.62a77.52,77.52,0,0,0,10.53,2.22,23.65,23.65,0,0,1,11.07,5c6.54,5.29,13.41,10.38,17,18.24,3.16,6.88,5.53,14.1,8.34,21.14,1.43,3.58,3,7.14,4.67,10.6,1.28,2.58,3.16,4.87,4.36,7.49a28.94,28.94,0,0,1,.66,23.84c-4.74,11.67-9.06,23.62-17.71,33.11a71.53,71.53,0,0,1-11.91,9.92,10.29,10.29,0,0,1-11.9.27C1765.5,500.48,1759.14,496.25,1752.34,491.83Zm-10.26,5.09c2.67-3.39,4.85-6.37,7.27-9.15,2.15-2.46,4.67-2.55,6.8-.52A68.31,68.31,0,0,0,1774,499.57a6.71,6.71,0,0,0,7.33-.44c5.58-3.95,11.07-8.14,14.23-14.34,4.29-8.44,8.18-17.09,12.1-25.71,3.08-6.78,2.14-13.48-1.06-19.95-1-2-2.51-3.63-3.48-5.59-1.89-3.81-3.69-7.68-5.29-11.63a81.31,81.31,0,0,1-2.5-8c-3.79-12.86-12-22.42-22.69-30a16.8,16.8,0,0,0-5.14-2.31c-5.1-1.4-10.24-2.61-15.38-3.85a5.57,5.57,0,0,0-2.36-.16c-7.4,1.53-14.13,4-16.23,12.44a8.57,8.57,0,0,1-.3.85c-5.48,16.88-8.2,34.36-11.49,51.73-.56,2.95.5,3.61,3.25,4.13a77.22,77.22,0,0,1,14.28,4c5.46,2.23,7.41,7.78,5.27,12.93-1.92,4.58-7.25,6.44-12.79,4.47l-2.84-1c-.67,2.06-1,3.9-1.82,5.43-1.89,3.39-.55,5.67,1.85,8.15,3.66,3.79,7,7.88,10.41,11.92A41.42,41.42,0,0,1,1742.08,496.92Z" transform="translate(-1177.15 -333.74)"/><path class="a" d="M1624.89,377.4a52.59,52.59,0,0,1-2.42,19.81c-2.58,7.78-13.9,17.44-24,16.18-3.31-.42-5.85,2.41-6.3,5.76-.29,2.12-1.68,4.07-2.42,6.15a4.77,4.77,0,0,0-.4,3c2.31,5.64,0,10.3-6,10.88a24.88,24.88,0,0,1-21.8-8.39c-4.1-4.58-3.2-8.91,1.87-12.27a3.3,3.3,0,0,0,1-2.77,7.2,7.2,0,0,1,1.9-6.61c2.06-2.23,1.69-4.24-.92-5.72-1.83-1-3.61-2.14-5.43-3.18a18.46,18.46,0,0,1-8.68-11.05c-7.65-25.12,6.2-43.74,23.21-52,8.69-4.2,18.14-4.3,27.51-1.83a11.32,11.32,0,0,1,3.48,1.68c12.62,8.73,19.29,20.69,19.41,36.15C1624.9,374.6,1624.89,376,1624.89,377.4Zm-5.2.23-.89-.08c1.39-7.38-.29-14.27-4-20.5-4.63-7.87-10.18-14.54-20.42-15.69-7.07-.79-13.89-.08-19.64,3.41-15.82,9.61-22.41,24.68-17,42.47a15.58,15.58,0,0,0,4.19,6.38,30.7,30.7,0,0,0,7.22,4.75c2.46,1.27,4,2.76,3.86,5.75a2.74,2.74,0,0,0,1.51,2c4,1.61,8.2,2.89,12.17,4.62,1.61.7,2.6.72,3.55-.66,2-2.92,4.77-3.5,8.13-3.14,7.31.77,16.28-4.91,18.17-12C1618.06,389.27,1618.68,383.4,1619.69,377.63Zm-38.51,56.3,3.25-1.42c-.64-1.26-1-2.86-2-3.73-4-3.52-8.66-5.73-14.12-5.63-1,0-2.43.58-2.72,1.28s.36,2.12,1,2.83C1570.33,431.21,1574.94,433.37,1581.18,433.93Zm-5.37-21.21L1572,415c1,1.15,1.87,2.65,3.14,3.38,2.22,1.26,4.76,1.94,7.05,3.09,1.37.68,2.42,1.27,3.53-.33s.94-3.25-.63-4.12C1582.17,415.44,1579.06,414.21,1575.81,412.72Z" transform="translate(-1177.15 -333.74)"/><path class="a" d="M1269.44,547.23c-9.52,5-18.42,4.34-27.45.71-6-2.41-9.79-6.73-10.78-13-.72-4.56-.5-9.3-.35-14,.05-1.65-.13-2.5-1.64-3.28a47.15,47.15,0,0,1-6-3.84,9.26,9.26,0,0,1-3.87-7.13c-.13-2-.54-4-.74-5.95-.7-6.9,3.28-11.83,10.17-12.62A9.35,9.35,0,0,1,1232,488c4.34,1.18,6.54-1.16,8.64-4.46a81.49,81.49,0,0,1,6.65-8.45,7.15,7.15,0,0,1,7.29-2.59,126.85,126.85,0,0,1,17.63,5.49,11.6,11.6,0,0,1,7.25,11.18,21.44,21.44,0,0,0,.5,3.2c10.57-3.16,15.17-1.5,22.43,6.71,3.41,3.85,5.19,7.88,5.11,12.94-.06,3.09.22,6.18.15,9.27-.07,2.86-.72,5.64,2.7,7.43,1,.5,1.46,2.87,1.31,4.29a22.23,22.23,0,0,1-8.09,15.21c-1.41,1.16-4.07,1.19-6.12,1.08-1.6-.08-2.24.18-2.92,1.62a71.59,71.59,0,0,1-4,6.95c-2.1,3.41-5.35,4.41-9.07,3.75a44.61,44.61,0,0,1-8.06-2.17c-4.27-1.63-5.12-3.42-4.43-7.89C1269.19,550.36,1269.26,549.1,1269.44,547.23Zm31.85-28.17c-.39-6.18-.26-12.16-5.09-17.28-5-5.36-8.89-6.06-14.25-1.12-2.64,2.42-5.35,2.06-6.65-1.28a35.57,35.57,0,0,1-2.29-9.23c-.33-3.34-1.89-5.53-4.77-6.63-3.9-1.5-8-2.6-11.94-3.87a4.92,4.92,0,0,0-6,2.18c-2.32,3.38-4.65,6.74-6.79,10.23a6.63,6.63,0,0,1-6.15,3.5c-2.5,0-5-.05-7.49.13a3.56,3.56,0,0,0-3.64,3.62c-.49,7,.88,9.4,7.27,12.52,4.94,2.4,5.28,4.18,4.41,9.59a47.15,47.15,0,0,0,.14,13.26c.43,3.43,3,5.59,6.27,7.09A27.86,27.86,0,0,0,1259,544c4.18-.37,7.14-2.6,9.34-6.2.74-1.22,2.62-2.69,3.72-2.5s2.78,2.11,2.94,3.43c.5,4.13.41,8.33.55,12.5,0,.77-.16,1.72.22,2.27,1.74,2.51,8.43,2.72,10.14.15a40.87,40.87,0,0,0,3.68-7.44c1.88-4.69,3.38-5.45,7.91-3.26,1.83.88,3.48.93,4.42-.82a57.49,57.49,0,0,0,2.57-6.67c.61-1.59.63-2.75-1.32-3.55-2.35-.95-3-2.95-2.66-5.43S1301,521.53,1301.29,519.06Z" transform="translate(-1177.15 -333.74)"/><path class="a" d="M1357.54,355c16.22-.51,27.15,7.23,34.82,21.08,4.77,8.62,7.5,17.61,6.44,27.25-1.34,12.23-4.16,24.2-10.51,35-1.87,3.18-4,6.28-3.64,10.26a2.54,2.54,0,0,1-.49,1.7c-3.58,4.28-7.08,8.64-10.9,12.69-1.79,1.9-4.33,1.56-6.31-.05a109.06,109.06,0,0,1-8.23-7.4c-2-2-2-4.44-.16-6.75a5.46,5.46,0,0,0,1.29-2,3.33,3.33,0,0,0-.31-2.46,2.22,2.22,0,0,0-2.13-.29,24.15,24.15,0,0,0-5.21,3.35c-4.85,4.55-7.37,5-12.94,1.21A105.88,105.88,0,0,1,1316,427.24c-6.12-7.63-11.88-15.56-17.8-23.35-2-2.7-1.76-5.59-.79-8.56,2.62-8,7.91-14.32,13.33-20.45C1323.12,360.85,1339.45,355.79,1357.54,355Zm-.46,6.28c-16.3.5-30.74,5.49-41.89,17.94-4.65,5.19-9.17,10.55-11.7,17.24a5.29,5.29,0,0,0,.75,5.58c4.64,6.13,9.1,12.38,13.72,18.52,6.84,9.1,15.21,16.59,24.42,23.22,2.09,1.5,3.55,1.25,5.38-.66a24.21,24.21,0,0,1,6.4-4.73c3.23-1.65,6.86-2.31,9.73.66a9.11,9.11,0,0,1,2,10.52c-.9,2.11,2,6.75,4.26,6.85a1.83,1.83,0,0,0,1.29-.58c3-3.82,8.45-6,7.82-12.27-.15-1.49,1-3.19,1.81-4.69,5.1-9.88,9.41-20.06,11.08-31.14a59.57,59.57,0,0,0,.7-10.66c-.2-6.54-2.92-12.26-6-18C1380.43,367.12,1370.87,360.85,1357.08,361.32Z" transform="translate(-1177.15 -333.74)"/><path class="a" d="M1222.78,586.24c.85-2.18,1.61-4.41,2.56-6.54,1.85-4.12,3.81-4.84,7.83-3,1.26.6,2.43,1.37,3.63,2.08,2.82,1.67,3.63,4.16,2.77,7.2-.54,1.91-1.41,3.75-1.85,5.68-.16.74.46,1.65.73,2.48.79-.41,1.89-.61,2.31-1.26,1-1.58,1.66-3.41,2.6-5,1.52-2.68,3.51-3.5,6.29-2.19a72.48,72.48,0,0,1,6.92,4.25,6.83,6.83,0,0,0,.43-1.34c.65-4.4,1.18-4.94,5.54-4.37a36.82,36.82,0,0,1,7.24,1.78c2.76,1,3.27,3.52,3,5.94-1.27,11.75-5.73,21.76-17,27-3.76,1.75-6.18,3.88-7.57,7.68a49,49,0,0,1-3.68,7.53c-2.43,4.22-6.42,5.4-11.41,3.59-4.54-1.64-6.71-5.07-6-9.76a23.94,23.94,0,0,0,.55-6c-1,2-2,4-3,5.89-3.22,5.7-7,6.71-12.63,3.39-6.65-3.95-7.52-6.08-4.94-13.5.76-2.19.3-3.38-1.7-4.26-5-2.2-6.83-6.24-7.92-11.45-2.18-10.47.85-20,4.16-29.53,3.17-9.18,4.9-10.14,14.34-7.73,2.7.7,5.46,1.23,8.11,2.1,3.2,1,3.75,3,2.3,6.08s-2.77,6.4-4,9.66a14.81,14.81,0,0,0-.45,3.37Zm40.16,3.61c-.66,1.95-1.14,3.79-1.9,5.5a28.86,28.86,0,0,1-2.78,4.94c-1.23,1.72-2.94,2.84-5.18,2s-3.3-2.77-3.1-5.23c.07-.79.55-1.61.41-2.33a15.27,15.27,0,0,0-1.27-3,9.7,9.7,0,0,0-2.28,1.64,13.22,13.22,0,0,0-1.17,2.74q-2.89,6.4-10.25,3.49c-4-1.59-5.29-4.6-3.71-9,.57-1.6,1.22-3.17,1.84-4.75.71-1.8-.35-2.81-1.8-3.07-.62-.1-1.73.89-2.13,1.64a34.23,34.23,0,0,0-1.28,4c-1.11,3.06-3.8,4.95-6.56,4.7a6.48,6.48,0,0,1-6-5.73,21.24,21.24,0,0,1,.74-7c.72-2.76,1.92-5.4,3.06-8.49-2.75-.7-5.23-1.31-7.71-2-1.92-.5-3,.23-3.59,2.11-1.43,4.67-3.12,9.28-4.37,14a30,30,0,0,0,1.09,18c.88,2.44,4.4,4,6.86,5.78s3.32,4.1,2.23,7c-.62,1.68-1.28,3.36-1.74,5.1-.76,2.79,1.72,3.22,3.31,4.21s2.83.17,3.64-1.34c1.28-2.37,2.44-4.81,3.83-7.11,2.49-4.11,5.49-4.43,9-1.18a6.68,6.68,0,0,1,2.23,7l-1,4.07c-.48,1.88-.58,3.67,1.67,4.47s3.81,0,4.83-2.19a94.91,94.91,0,0,1,5.23-10.43c1.06-1.7,3.06-2.86,4.75-4.08a20.94,20.94,0,0,1,3-1.29c7.76-3.92,11.44-10.8,13.63-18.78C1267.49,591.56,1267.23,591.05,1262.94,589.85Z" transform="translate(-1177.15 -333.74)"/><path class="a" d="M1800.62,616.37c.05,4-2.27,6.77-6.27,7.18-3.29.34-4.9,1.79-5,5.07a11.43,11.43,0,0,1-.52,2.64c-1.87,6.74-6.44,7.89-11.81,3.45-2.19-1.81-5.26-2.57-7.94-3.78-2.51-1.13-5.29-1.88-7.53-3.41-4.42-3-5-6.42-2.41-11,1.7-3,1.39-6.08.85-9.3-.69-4.11-1.53-8.28-1.46-12.41.1-6.25,4.37-8.72,9.74-5.62,3.74,2.15,6.94,1.71,10.43-.07a31.05,31.05,0,0,1,5.77-2.45c4.47-1.21,8.78,1,9.3,5.54a67,67,0,0,0,6.44,22.29A6.68,6.68,0,0,1,1800.62,616.37Zm-35.38-20.46c.49,3.26.67,5.58,1.21,7.82,1.19,4.95,1.85,9.93-.5,14.62-1.32,2.63-.38,3.82,1.84,4.47,4.79,1.43,9.63,2.65,14.84,4,1.15-4.81,1.76-10.76,8.7-11.4-2-7.26-3.94-14.07-5.94-21.25C1779.31,597.12,1773.07,600.57,1765.24,595.91Z" transform="translate(-1177.15 -333.74)"/><path class="a" d="M1620.86,432c-3.24-5.42-2.39-11.57.32-17.64a10.61,10.61,0,0,1,6.57-5.74,5.62,5.62,0,0,0,2.57-2.73c.71-1.4.85-3.07,1.44-4.55,1.42-3.6,3.79-5.08,7.64-4.95a21.18,21.18,0,0,0,2.39,0c5.39-.47,6.21.13,8.48,5,.52,1.11,2,1.94,3.22,2.5,1,.47,2.36.31,3.54.51,3.78.63,5.79,2.56,5.84,6.4a47.69,47.69,0,0,1-.88,11.59c-.51,2.14-2.7,4-4.34,5.72-1,1-1.76,1.55-.84,3.18,2.84,5.05,1.59,10.23-3.43,13.51-4.73,3.09-9.68,5.86-14.6,8.66-2.15,1.22-4.18.71-5.35-1.52-.83-1.61-1.93-1.93-3.6-1.92-6.25,0-12.25-5.8-12-12C1617.92,436.05,1619.65,434.26,1620.86,432Zm16.87,13.83c2.62-1.46,4.75-2.62,6.84-3.84a45.78,45.78,0,0,0,5.56-3.46,3,3,0,0,0,.8-4.47c-3.52-5.34-3.37-6.49,1.92-10,2.42-1.63,3.64-3.54,3.46-6.43a18.72,18.72,0,0,1,0-3.59c.34-2.6-.83-3.61-3.33-3.72-4.24-.19-7.13-2.2-8.4-6.41a2.89,2.89,0,0,0-1.66-1.74c-3.81-.87-5.54.26-6.56,4-.36,1.35-.41,2.88-1.11,4a8.41,8.41,0,0,1-3.41,3.43c-5.22,2.17-8.19,7.43-6.75,12.84a4,4,0,0,0,1.54,2.05c4.88,3.24,4.83,5.55-.17,8.71-.78.49-1.73,1.58-1.7,2.36a4.81,4.81,0,0,0,5.32,4.12C1633.37,442.9,1636.08,443.32,1637.73,445.79Z" transform="translate(-1177.15 -333.74)"/><path class="a" d="M1660.13,363.71c-.28,2.36-1.58,2.92-3.6,2.46-4.52-1-5.35-.57-6.8,3.9-.46,1.42-.73,2.9-1.08,4.35-1,4-3.35,4.69-6.44,2-1.13-1-1.39-4-3.94-2.34-1.36.89-2.31,2.39-3.57,3.45a26.83,26.83,0,0,1-3.23,2.06c-.28-1.3-.89-2.63-.78-3.9.28-3.17,1-6.29,1.34-9.45.29-2.54-.94-4.24-3.08-5.68-1.25-.83-2.89-2.63-2.69-3.69.26-1.34,2-2.94,3.43-3.43a35,35,0,0,0,15.61-10.66,9.51,9.51,0,0,1,2.24-2c2.07-1.23,4.1-.51,4.67,1.82,1.67,6.69,3.56,13.28,7.31,19.17A7.17,7.17,0,0,1,1660.13,363.71ZM1648.66,347l-15.9,11.14c3.65,2.21,3.71,6.28,3.8,10.79,3.43-2.76,6.08-2.63,8.1,1.46,1.92-4.73,3.45-8.94,8.61-10C1651.62,355.58,1650.11,351.21,1648.66,347Z" transform="translate(-1177.15 -333.74)"/><path class="a" d="M1390.48,459a30.56,30.56,0,0,1,4.63,1.85c5.05,2.91,8.85,10.17,7.92,14.79-1.32,6.54-7.73,12.85-13.91,13.7-5.75.79-15.87-8.21-15.71-14a5.76,5.76,0,0,1,.57-2.9c3.35-5.06,6.59-10.28,12.58-12.73a10.08,10.08,0,0,1,1.73-.49C1388.77,459.08,1389.28,459.08,1390.48,459Zm5.75,15c0-2.4-2.91-6.42-5.28-7.21-2.83-1-4.41,1-6,2.78-1.14,1.25-2.22,2.55-3.33,3.81-1.91,2.19-1.64,4.06.84,5.66.67.43,1.4.77,2,1.26,1.75,1.36,3.31,2.7,5.85,1.29C1393.45,479.78,1395.7,477.56,1396.23,473.94Z" transform="translate(-1177.15 -333.74)"/><path class="a" d="M1554.82,403.55c0,2.23-1.15,3.47-3.1,4.64a20.12,20.12,0,0,0-5.53,5c-1.85,2.45-3,5.38-4.79,7.92a4.1,4.1,0,0,1-3.09,1.74,3.76,3.76,0,0,1-2.56-2.42c-.67-3.77-2.82-4.69-6.34-4.54-1.55.07-3.78-.76-4.51-1.92-.55-.88.46-3.16,1.33-4.44a49.49,49.49,0,0,0,7.76-17.05,5,5,0,0,1,2.79-3.26c.84-.23,2.75,1.18,3.26,2.29,2,4.33,4.86,6.77,9.89,6.75C1553.19,398.29,1554.87,400.47,1554.82,403.55Zm-14.6,10.83c2.09-3.29,4.38-6.9,6.53-10.27l-9-4.87-5.22,11.08Z" transform="translate(-1177.15 -333.74)"/><path class="a" d="M1677.79,462.05c2.47,1.42,4.29,2.57,6.2,3.52a11.87,11.87,0,0,0,4.45,1.64c5.1.18,7.84,3.53,6.3,8.35-1.83,5.75-4.54,10.88-10.55,13.42a5.35,5.35,0,0,1-5.88-.62c-5.55-4.38-8.37-15.6-5.14-21.8C1674.07,464.84,1676.07,463.68,1677.79,462.05Zm.8,6.76a18.4,18.4,0,0,0-1.49,3.75c-.63,4.39,2.12,7.68,4,11.22.16.3,1.29.34,1.83.14,2.85-1.11,6.52-7.81,6.09-11.65C1684.48,475.05,1682.12,470.78,1678.59,468.81Z" transform="translate(-1177.15 -333.74)"/><path class="a" d="M1177.36,568c.58-.31,1.41-1,1.71-.87,1.69,1,3.25,2.21,4.86,3.35-.59.5-1.41,1.52-1.73,1.39a53.29,53.29,0,0,1-5-2.7Z" transform="translate(-1177.15 -333.74)"/><path d="M1524.09,432.63c1.71,2,3,3.48,4.31,5-.72.35-1.78,1.2-2.1,1a22,22,0,0,1-3.82-3.52C1522.35,434.92,1523.25,433.86,1524.09,432.63Z" transform="translate(-1177.15 -333.74)"/><path class="a" d="M1790.63,745.62l-4.05.55c.11-.87.07-2.43.35-2.49a15.53,15.53,0,0,1,3.67,0Z" transform="translate(-1177.15 -333.74)"/><path class="a" d="M1792,739.68c-1.16.33-2.39,1.07-3.45.87-.85-.16-1.48-1.45-2.21-2.24l.58-.56,4.79.94C1791.78,739,1791.87,739.35,1792,739.68Z" transform="translate(-1177.15 -333.74)"/><path class="a" d="M1292.94,427.92l2.34,4.57c-1.3-.3-2.31-.26-2.47-.61a22,22,0,0,1-1-3.61Z" transform="translate(-1177.15 -333.74)"/><path class="a" d="M1185,561.45c.77,1.08,1.55,2.15,2.26,3.27a6.22,6.22,0,0,1-1,.7c-.89-1-1.71-2-2.54-3Z" transform="translate(-1177.15 -333.74)"/><path class="b" d="M1386.3,854.37c.81-3.77-.53-6.55-1.88-9.3-.68-1.39-1.67-3,.2-3.81.81-.36,2.44.57,3.41,1.29,2.9,2.15,5.65,4.5,8.46,6.77l1.3-1.07c-1.64-2.94-3.36-5.85-4.89-8.85a14.14,14.14,0,0,1-.8-3.32c1.14.21,2.52.07,3.37.67,3.5,2.47,6.85,5.15,10.23,7.78a6.19,6.19,0,0,1,.88,1.08l-.27.84-5.52-1.27c.27,1.17.6,2.35.83,3.55.72,3.82-1.25,5.66-4.92,4.46-1.87-.62-3.62-1.57-5.74-2.51-.09,1.09-.16,2-.26,3-.4,4.2-2.85,5.77-6.85,4.25a22.43,22.43,0,0,1-4.16-2.33c-1.32-.87-2.53-1.89-3.42-2.57-1.23,1.47-2.13,3.53-3.59,4.08-2.47.92-4.81-.62-6.19-2.66-3.8-5.6-7.4-11.34-10.94-17.1-.48-.78-.21-2-.29-3.06l.87-.6a28,28,0,0,1,3.76,3.7c2.59,3.68,4.91,7.53,7.41,11.26.8,1.2,1.83,2.24,2.75,3.36l.79-.43a35.58,35.58,0,0,1-2-5.66c-.25-1.25.33-2.65.55-4,1.17.5,2.58.74,3.49,1.54,3.36,2.95,6.5,6.15,9.85,9.13C1383.56,853.35,1384.86,853.67,1386.3,854.37Z" transform="translate(-1177.15 -333.74)"/><path class="b" d="M1697.32,670.67c-2.26,1.9-4.57,3.75-6.7,5.77-.24.23.48,1.47.76,2.24l.87,2.41c-.91.15-2.16.75-2.65.37-1.1-.86-2.38-2.11-2.58-3.36-.64-4-.83-8-1.19-12l.87-.16,2,3.6c1.49-3.63,2.7-6.76,4.08-9.81.34-.74,1.25-1.22,1.9-1.82.29.9,1,1.86.81,2.67a65.17,65.17,0,0,0-1.42,7.6,17.31,17.31,0,0,1,3.16-2.63c1.13-.56,2.9-1.15,3.71-.65a4,4,0,0,1,1.07,3.59c-1.51,4.94-3.38,9.78-5.11,14.66-.16.44-.28.9-.41,1.35l.83.64,9.27-11,.67.42a6,6,0,0,1-.16,1.86,30.16,30.16,0,0,1-9.76,12.27c-1,.71-2.9,1.16-3.72.65s-1.36-2.52-1.06-3.6c1.08-3.83,2.55-7.54,3.9-11.29.42-1.18.92-2.34,1.39-3.51Z" transform="translate(-1177.15 -333.74)"/><path class="b" d="M1537.66,835c-.59,1.38-1.1,2.55-1.68,3.9a16.27,16.27,0,0,1,2.41-1.94c.93-.49,2.21-1.22,3-.92a37.55,37.55,0,0,1,7.57,3.74c1.65,1.11.16,2.4-.92,2.46a56.79,56.79,0,0,1-7.12-.42l-.25-1c-1.38,1.51-2.72,3.07-4.14,4.53s-3.25,3-5.5,1.64-1.72-3.64-1.18-5.67A8.22,8.22,0,0,1,1537.66,835Z" transform="translate(-1177.15 -333.74)"/><path class="b" d="M1566.22,521l5.89-2.88.73.37c-.34,1-.39,2.38-1.06,2.79a27.26,27.26,0,0,1-6.93,3.32c-2.15.58-3-1.19-2.8-3.15s.76-3.71,1.09-5.58c.19-1,.23-2.09.37-3.44l-3.8.32c.21-2.42,1.91-4.26,4-4.18a3.49,3.49,0,0,1,3.61,3.93C1567.22,515.07,1566.68,517.61,1566.22,521Z" transform="translate(-1177.15 -333.74)"/><path class="b" d="M1366.61,584.73c1.61-4.41,5-5.68,8-7.18a20.46,20.46,0,0,1,6.91-1.71,3.63,3.63,0,0,1,2.89,1.54c.46.81-.05,2.17-.13,3.29l-.87,0-.9-3.26Z" transform="translate(-1177.15 -333.74)"/><path class="b" d="M1550.45,521.44a48.55,48.55,0,0,1,5,2.4,14.28,14.28,0,0,1,3.3,3,7.86,7.86,0,0,1,1,2.47c-.82,0-1.92.41-2.41,0-2.64-2.11-5.13-4.42-7.68-6.65Z" transform="translate(-1177.15 -333.74)"/><path class="b" d="M1365,574.59a65.53,65.53,0,0,1,4.69-5c.55-.47,1.79-.13,2.72-.15-.09.89.14,2-.34,2.64A6.79,6.79,0,0,1,1365,574.59Z" transform="translate(-1177.15 -333.74)"/><path class="b" d="M1648.66,347c1.45,4.21,3,8.58,4.61,13.39-5.16,1.06-6.69,5.27-8.61,10-2-4.09-4.67-4.22-8.1-1.46-.09-4.51-.15-8.58-3.8-10.79Z" transform="translate(-1177.15 -333.74)"/><path class="a" d="M1435.26,649.46a77.45,77.45,0,0,1-23.11,50.64,39.81,39.81,0,0,1-15,9.62c-11.88,4.13-23.34-.41-29.16-11.57a42.56,42.56,0,0,1-4.48-21.18c.59-20.93,7.78-39.19,22.64-54.16a38.88,38.88,0,0,1,17.27-10.38c10.83-3,21,1.16,26.62,10.91C1434.05,630.29,1435.37,637.89,1435.26,649.46Z" transform="translate(-1177.15 -333.74)"/><path class="a" d="M1533.72,673.28a71.62,71.62,0,0,1,27.38-51.91,43.05,43.05,0,0,1,14.07-7c10.41-3.2,20.15,1.61,24.7,11.56,3.29,7.2,3.9,14.81,2.77,22.57-2.62,18.11-10.26,33.69-23.81,46.14-5.38,4.94-11.55,8.57-18.9,9.76-9.81,1.59-18-2.62-22.56-11.5C1534.58,687.43,1533.84,681.52,1533.72,673.28Z" transform="translate(-1177.15 -333.74)"/><path class="a" d="M1592.54,894.19a11.28,11.28,0,0,1-3-.21c-5.52-2.22-11-1.23-16.06,1-16.54,7.21-28.58,19.06-35.41,35.94a20.09,20.09,0,0,0-.87,2.86c-1.51,6.13,1.19,9.83,7.49,10.35,4,.33,7.95.71,11.92,1.08,3.1.28,4.18,2.46,4.5,5.12a12.2,12.2,0,0,0,3.65,7.65c3.26,3.19,6.65,4.59,11.33,3,6.14-2.07,12.47-3.57,18.73-5.27a21.36,21.36,0,0,1,5.55-1.15c1.25,0,2.49,1.05,3.74,1.63-.76,1-1.3,2.63-2.32,3.06-7,2.91-14.09,5.58-21.17,8.3-1,.39-2.13.56-3.18.87-11.13,3.25-21.44-3.2-23.37-14.76a2.22,2.22,0,0,0-2.56-2.19,33.58,33.58,0,0,1-5.68-.26c-3.17-.62-6.54-1.05-9.36-2.47-6.15-3.11-8-7.68-6.67-14.48,2.35-11.74,8.94-21,17.24-29.24,6.87-6.8,14.37-12.93,23.82-15.61a49.51,49.51,0,0,1,14.72-1.53c2.18.06,4.34,2.36,6.4,3.79C1592.36,892,1592.27,892.94,1592.54,894.19Z" transform="translate(-1177.15 -333.74)"/><path class="a" d="M1618,915.73a13.7,13.7,0,0,1-.4-1.35c-.16-1.32-.29-2.63-.43-4,1.1.81,2.21,1.58,3.28,2.42a3.92,3.92,0,0,1,.67,1c2.49,3.91,1.92,5.24-2.64,5.86.29.72.57,1.4,1,2.32-.74.15-1.56.53-1.75.32a35.2,35.2,0,0,1-4.75-5.56c-.79-1.28.31-2.29,1.85-2.07A21.11,21.11,0,0,1,1618,915.73Z" transform="translate(-1177.15 -333.74)"/><path class="a" d="M1595.78,388.28c-.63,4.43-2.56,6.41-5.83,7.23-.6.15-1.13,1-1.49,1.68-1.75,3.14-4.17,4.66-6.89,4.2a7.11,7.11,0,0,1-5.87-6.68,4.77,4.77,0,0,0-2.43-4.31,5.69,5.69,0,0,1-2.48-6.3c.58-2.37,2.41-3.08,4.79-3.19,2.15-.1,1.75-1.52,1.07-3a19.08,19.08,0,0,1-1.87-5.25c-.38-3,1.2-4.4,4.19-4.47a12.2,12.2,0,0,0,2.81-.75c-.68-.77-1.22-1.79-2.07-2.26-2.23-1.23-3.64-2.27-2.33-5.36.72-1.69-.28-4.08-.43-6.17-.18-2.52.06-4.67,3.53-4.51.77,0,1.75-.81,2.36-1.5,3.56-4,4.72-3.83,7.15,1a43.54,43.54,0,0,0,2.9,4.88c1.16,1.71.81,2.91-.86,4-1,.64-1.83,1.48-3.21,2.62,1.19.31,1.57.53,1.9.47,5.37-1.08,7.48,2.69,7.87,8.07.09,1.22.37,2.43.56,3.65l1,0a19.45,19.45,0,0,1,2-4.14c.93-1.12,2.44-2.54,3.61-2.48s2.64,1.68,3.14,2.94c1.07,2.68,2.06,5,5.07,6.2,2.22.9,2.62,4.13.59,5.87-4,3.44-5.31,8-6.65,12.78-.37,1.3-1.78,2.32-2.71,3.47-1-1-1.87-2-2.88-2.94C1600.46,392.32,1598.46,390.63,1595.78,388.28Zm10-13c-1.89,2.68-3.49,5.19-5.34,7.51-1.34,1.67-1.18,2.81.62,3.83,1,.55,2,1.09,2.81,1.53l5.91-9.64Zm-15.31-3.16c3-.46,4-1.14,3.89-3.36-.1-1.72,0-3.84-2.44-4.16-1.8-.23-6.17,3.56-5.46,4.73S1589.11,371.19,1590.49,372.09Zm-4.51-21c-.72.76-1.21,1.38-1.8,1.88s-1.9.93-2.07,1.58a16.6,16.6,0,0,0-.71,6.1c.15,1.08,1.75,1.51,2.65-.12a15.55,15.55,0,0,1,2.51-4C1588.78,354.49,1587.83,353,1586,351.11Zm-3.91,27.25c-.35,1.43-1.29,3.48-.85,3.84a10.37,10.37,0,0,0,4.93,2.2c1.69.23,3.86.31,4.69-2.44Zm3.79-2.79a46,46,0,0,0,6.1,2.33,8.79,8.79,0,0,0,4-.47c.34-.1.5-1.14.54-1.77,0-.14-.76-.52-1.17-.5C1592.38,375.24,1589.47,375.4,1585.86,375.57Zm-.34,14.26c1.71,2.15,3.4,2.32,5.22,1.43.41-.2.55-.93.82-1.41-.48-.25-1-.72-1.43-.69C1588.71,389.26,1587.31,389.55,1585.52,389.83Z" transform="translate(-1177.15 -333.74)"/><path class="b" d="M1585.52,389.83c1.79-.28,3.19-.57,4.61-.67.46,0,.95.44,1.43.69-.27.48-.41,1.21-.82,1.41C1588.92,392.15,1587.23,392,1585.52,389.83Z" transform="translate(-1177.15 -333.74)"/><path class="a" d="M1716.36,489.59a32.76,32.76,0,0,1,5.25,2.29c5.73,3.58,10,12.52,9,18.2-1.5,8.05-8.77,15.82-15.78,16.86-6.51,1-18-10.1-17.81-17.25a7.69,7.69,0,0,1,.64-3.57c3.81-6.22,7.47-12.64,14.28-15.66a10.23,10.23,0,0,1,1.95-.6C1714.42,489.73,1715,489.73,1716.36,489.59Zm6.51,18.44c0-3-3.29-7.9-6-8.88-3.2-1.17-5,1.26-6.84,3.43-1.29,1.53-2.51,3.13-3.77,4.69-2.17,2.69-1.87,5,1,7,.75.53,1.58.95,2.29,1.55,2,1.67,3.75,3.32,6.63,1.58C1719.72,515.21,1722.28,512.48,1722.87,508Z" transform="translate(-1177.15 -333.74)"/></svg>